<svg xmlns="http://www.w3.org/2000/svg" width="105" height="26" fill="none"><mask id="prefix__a" mask-type="alpha" maskUnits="userSpaceOnUse" x="0" y="1" width="25" height="24"><circle cx="12.996" cy="13" r="11.999" fill="#fff"/></mask><g mask="url(#prefix__a)"><path fill="#A9E6FD" d="M.997 1.001h23.997v23.997H.997z"/>
<path fill-rule="evenodd" clip-rule="evenodd" d="M12.998.829C19.628.829 25 6.27 25 12.982c0 .539-.034 1.069-.101 1.588h-.002a.258.258 0 0 1-.005.025c-.238.931-7.547.592-12.157-.186-5.056-.854-11.523-2.458-11.526-3.71h-.005C2.26 5.079 7.14.829 12.998.829z" fill="url(#prefix__b)"/>
<path fill-rule="evenodd" clip-rule="evenodd" d="M12.736 14.409c4.61.777 11.918 1.117 12.157.186.238-.932-4.545-2.59-11.085-3.666-1.592-.262-12.329-1.82-12.599-.23 0 1.252 6.47 2.856 11.527 3.71z" fill="#D12000"/><path fill-rule="evenodd" clip-rule="evenodd" d="M14.563 4.454a.765.765 0 0 1 .615.885l-2.49 14.5a1.833 1.833 0 0 0 1.475 2.122 1.815 1.815 0 0 0 2.096-1.493l.097-.568a.757.757 0 0 1 .875-.623.764.764 0 0 1 .615.885l-.098.568c-.314 1.83-2.036 3.058-3.844 2.74-1.808-.32-3.02-2.062-2.705-3.893l2.49-14.5a.757.757 0 0 1 .874-.623z" fill="#000"/>
<path fill-rule="evenodd" clip-rule="evenodd" d="M12.998.829C19.628.829 25 6.27 25 12.982c0 .539-.034 1.069-.101 1.588h-.002c.15-.935-4.607-2.575-11.09-3.641-1.591-.262-12.328-1.82-12.598-.23h-.005C2.26 5.079 7.14.829 12.998.829z" fill="url(#prefix__c)"/></g>
<defs><linearGradient id="prefix__b" x1="14.745" y1="3.501" x2="12.496" y2="15.75" gradientUnits="userSpaceOnUse"><stop stop-color="#FC3F1D"/><stop offset="1" stop-color="#FD8974"/></linearGradient><linearGradient id="prefix__c" x1="14.831" y1="4.839" x2="11.806" y2="23.074" gradientUnits="userSpaceOnUse"><stop stop-color="#FC3F1D"/><stop offset="1" stop-color="#FC3F1D" stop-opacity="0"/></linearGradient></defs></svg>
